<?xml version="1.0" encoding="UTF-8"?>
<svg width="407px" height="103px" viewBox="0 0 407 103" version="1.1" xmlns="http://www.w3.org/2000/svg" xmlns:xlink="http://www.w3.org/1999/xlink">
    <title>logo</title>
    <defs>
        <path d="M31.4356,19.264 L47.57648,19.264 L47.5888,19.33232 L47.56416,27.10512 L31.43616,27.10512 L31.43616,34.9216 L53.11264,34.9216 L53.088,42.7616 L31.43616,42.7616 L31.43616,59.34096 L19.63136,67.90224 L14.22848,61.3088 L23.4752,54.60336 L23.4752,42.7616 L7.56017471e-13,42.7616 L0.02464,34.9216 L23.4752,34.9216 L23.4752,27.10512 L3.71616,27.10512 L3.7408,19.264 L23.4752,19.264 L31.4356,19.264 Z M48.62704,-5.02353714e-13 L48.60016,7.98336 L3.76544,11.71296 L3.78896,4.44752 L3.836,3.724 L48.62704,-5.02353714e-13 Z" id="path-1"></path>
        <path d="M14.06384,43.89312 L19.38272,43.89312 L24.93232,36.14496 L24.91328,56.41776 L14.02688,56.41776 L14.06384,43.89312 Z M24.95024,14.84 L24.93232,36.05312 L14.08624,36.05312 L14.10416,31.87632 L14.12544,24.03632 L14.14336,14.84 L24.95024,14.84 Z M32.91232,7 L6.1824,7 L6.06032,56.41776 L3.35776,56.41776 L0,56.42784 L6.95408,64.25776 L32.86304,64.25776 L32.88768,56.41776 L32.87424,56.41776 L32.8888205,37.4961334 L32.91232,7 Z" id="path-3"></path>
        <linearGradient x1="25.8759279%" y1="23.5065505%" x2="100%" y2="115.208523%" id="linearGradient-5">
            <stop stop-color="#4B95FF" offset="0%"></stop>
            <stop stop-color="#0052D9" offset="100%"></stop>
        </linearGradient>
        <linearGradient x1="44.8611444%" y1="5.83018883%" x2="60.6508876%" y2="162.292021%" id="linearGradient-6">
            <stop stop-color="#388AFF" offset="0%"></stop>
            <stop stop-color="#0052D9" offset="100%"></stop>
        </linearGradient>
        <linearGradient x1="34.8604716%" y1="0%" x2="87.269982%" y2="131.929563%" id="linearGradient-7">
            <stop stop-color="#4391FF" offset="0%"></stop>
            <stop stop-color="#0052D9" offset="100%"></stop>
        </linearGradient>
        <linearGradient x1="50%" y1="50%" x2="138.67042%" y2="-50.1083713%" id="linearGradient-8">
            <stop stop-color="#3E8EFF" offset="0%"></stop>
            <stop stop-color="#0052D9" offset="100%"></stop>
        </linearGradient>
        <polygon id="path-9" points="9.00925746 0.942001159 0.798537463 10.8708012 0.783977463 16.5346412 28.1926175 16.5346412 28.1914975 8.69464116 13.9439775 8.69464116 15.7583775 6.18920116"></polygon>
        <linearGradient x1="40.9455622%" y1="0%" x2="79.9752008%" y2="100%" id="linearGradient-11">
            <stop stop-color="#4391FF" offset="0%"></stop>
            <stop stop-color="#0052D9" offset="100%"></stop>
        </linearGradient>
    </defs>
    <g id="last-version" stroke="none" stroke-width="1" fill="none" fill-rule="evenodd">
        <g id="画板" transform="translate(-57.000000, -53.000000)">
            <g id="logo" transform="translate(57.000000, 53.000000)">
                <g id="编组-54">
                    <g id="手" transform="translate(352.800000, 7.000000)">
                        <mask id="mask-2" fill="white">
                            <use xlink:href="#path-1"></use>
                        </mask>
                        <use id="蒙版" stroke="#006FFF" stroke-width="0.7" fill="#FFFFFF" xlink:href="#path-1"></use>
                    </g>
                    <g id="助" transform="translate(280.390656, 6.276592)">
                        <mask id="mask-4" fill="white">
                            <use xlink:href="#path-3"></use>
                        </mask>
                        <use id="蒙版" stroke="#006FFF" stroke-width="0.7" fill="#FFFFFF" xlink:href="#path-3"></use>
                        <polygon id="路径-3" fill="url(#linearGradient-5)" points="18.28624 21.5691652 14.08624 25.7675521 18.28624 29.965939 24.93232 29.965939 24.93232 21.565939"></polygon>
                        <polygon id="Fill-19" stroke="#006FFF" stroke-width="0.7" fill="#FFFFFF" points="59.784816 8.249472 51.128336 8.249472 51.807056 2.840992 43.902096 0.576352 42.940016 8.249472 36.374576 8.249472 36.349936 16.089472 41.957776 16.089472 36.734096 57.752352 43.907696 65.828672 43.909936 65.829792 50.146096 16.089472 55.152496 16.089472 53.058096 55.618752 48.302576 59.280032 53.845456 65.769312 60.848816 60.376512 63.395696 12.315072"></polygon>
                    </g>
                    <g id="作" transform="translate(214.130672, 3.837008)" fill="#FFFFFF" stroke="#006FFF" stroke-width="0.7">
                        <polygon id="Fill-4" points="58.786224 52.068912 58.810864 44.228912 38.584784 44.228912 38.554544 37.320752 56.437584 37.320752 56.463344 29.480752 38.520944 29.480752 38.488464 22.272432 30.528624 22.272432 30.725744 66.234672 38.686704 67.595472 38.619504 52.068912"></polygon>
                        <polygon id="Fill-5" points="58.962848 11.040176 37.639168 11.040176 42.367808 5.711216 35.989408 0.000335999999 24.388448 13.075216 24.377248 18.880176 58.938208 18.880176"></polygon>
                        <polygon id="Fill-6" points="0.02128 14.78848 5.43387557e-13 26.96064 0.14896 27.10176 9.86944 16.78208 9.86944 66.23568 17.8304 67.59536 17.8304 3.48165941e-14 14.0336 3.48165941e-14"></polygon>
                    </g>
                    <g id="创" transform="translate(141.588048, 3.222464)">
                        <path d="M39.243952,27.577536 L47.411952,34.577536 L47.411952,41.577536 L43.2548027,45.777536 L39.011952,41.577536 L39.011952,27.577536 L39.243952,27.577536 Z" id="形状结合" fill="url(#linearGradient-6)"></path>
                        <path d="M18.95824,1.17950094e-12 L40.16432,19.49472 L35.32032,24.79344 L20.56544,11.2 L9.08432,24.62992 L28.2464,24.62992 L34.76928,30.63648 L34.76816,47.91472 L29.178,47.914 L20.047,40.088 L20.048,40.07472 L26.80832,40.07472 L26.80832,32.46992 L15.51872,32.46992 L15.51872,55.2776 L27.94064,51.19744 L34.92832,51.19744 L34.94288,57.58032 L9.30832,65.99824 L3.36672,59.30848 L3.34992,59.276 L7.55776,57.8928 L7.55776,26.4152 L0.0112,35.24192 L-1.56319402e-13,35.23184 L0.02128,22.08192 L18.95824,1.17950094e-12 Z" id="形状结合" stroke="#006FFF" stroke-width="0.7" fill="#FFFFFF"></path>
                        <polygon id="Fill-9" stroke="#006FFF" stroke-width="0.7" fill="#FFFFFF" points="50.880256 58.115008 44.749376 53.845568 40.958176 59.986528 52.078656 67.731328 58.841216 67.731328 58.841216 12.775168 50.880256 3.811808"></polygon>
                    </g>
                    <g id="能" transform="translate(68.920768, 4.095392)">
                        <polygon id="Fill-10" stroke="#006FFF" stroke-width="0.7" fill="#FFFFFF" points="45.755136 39.35208 45.731616 47.19208 52.768576 47.19208 52.767456 58.142 41.398336 58.142 41.399456 35.4948 33.438496 35.4948 33.438496 65.982 60.729536 65.982 60.729536 45.44936 55.314336 39.35208"></polygon>
                        <polygon id="Fill-11" stroke="#006FFF" stroke-width="0.7" fill="#FFFFFF" points="53.0454293 24.456304 41.39968 24.456304 41.39856 20.2507111 51.1168759 12.9433761 46.1220597 6.91478251 41.39968 10.713904 41.39856 4.459824 33.43872 3.099024 33.4376 32.296304 60.82496 32.296304 60.86416 23.331184 53.0454293 15.9031327"></polygon>
                        <polygon id="Fill-12" fill="url(#linearGradient-7)" points="19.279232 39.3277319 12.279232 39.304608 12.3181641 49.0247358 15.779232 52.0257725 19.279232 49.0247358"></polygon>
                        <polygon id="Fill-12备份" fill="url(#linearGradient-8)" transform="translate(311.179232, 17.448170) scale(1, -1) translate(-311.179232, -17.448170) " points="314.679232 12.7277319 307.679232 12.704608 307.718164 19.1906952 311.179232 22.1917319 314.679232 19.1906952"></polygon>
                        <polygon id="Fill-13" stroke="#006FFF" stroke-width="0.7" fill="#FFFFFF" points="1.935136 28.161504 1.729056 64.349824 9.688896 65.709504 9.896096 36.001504 22.452416 36.001504 22.245216 56.225344 17.437056 61.485984 23.754976 67.262944 30.206176 60.205824 30.413376 28.161504"></polygon>
                        <polygon id="Fill-14" stroke="#006FFF" stroke-width="0.7" fill="#FFFFFF" points="30.184 17.25136 24.33984 10.68144 18.75888 15.23312 20.34592 17.01728 12.068 17.01728 19.90576 5.00192 12.98752 0 0.01568 19.8856 0 24.85728 30.18064 24.85728"></polygon>
                    </g>
                    <g id="智">
                        <polygon id="Fill-15" stroke="#006FFF" stroke-width="0.7" fill="#FFFFFF" points="4.10735346 59.6140972 39.1532735 59.6140972 39.0961535 52.3228972 12.0436735 52.3228972 12.0683135 49.2955372 44.6334335 49.2955372 44.6334335 62.5988972 4.49599346 62.5988972 4.25631346 70.4388972 52.5943935 70.4388972 52.5943935 41.4555372 4.10735346 41.4555372"></polygon>
                        <polygon id="Fill-16" stroke="#006FFF" stroke-width="0.7" fill="#FFFFFF" points="31.3122655 9.33752116 31.3122655 27.6170412 39.2732255 27.6170412 39.2732255 17.1775212 46.9989855 17.1775212 46.9978655 30.5010412 26.9554655 30.5010412 25.6529055 28.7628012 28.5850655 28.7628012 28.5839455 20.9228012 19.7773855 20.9228012 17.6885855 18.1328812 12.1154655 18.1328812 10.0501855 20.9228012 0.899785463 20.9228012 0.847145463 28.7628012 4.24298546 28.7628012 1.15738546 32.9269612 7.78218546 38.3410412 15.6669855 27.4960812 23.7948255 38.3410412 54.9599455 38.3410412 54.9588255 13.6170412 51.1575455 9.33752116"></polygon>
                        <mask id="mask-10" fill="white">
                            <use xlink:href="#path-9"></use>
                        </mask>
                        <use id="蒙版" stroke="#006FFF" stroke-width="0.7" fill="#FFFFFF" xlink:href="#path-9"></use>
                        <polygon id="路径-15" fill="url(#linearGradient-11)" mask="url(#mask-10)" points="8.95595499 0 16.2958049 5.86794352 4.10735346 20.2894615 -2.8 17.601901 -0.508009432 2.08436455"></polygon>
                    </g>
                </g>
                <path d="M8.284,99 C8.416,99 8.608,98.982 8.86,98.946 L8.86,98.946 L8.86,95.112 L12.19,90.18 C12.07,90.12 11.947,90.075 11.821,90.045 C11.695,90.015 11.596,90 11.524,90 C11.476,90 11.365,90.003 11.191,90.009 C11.017,90.015 10.894,90.03 10.822,90.054 L10.822,90.054 L8.284,93.996 L5.728,90.054 C5.656,90.03 5.533,90.015 5.359,90.009 C5.185,90.003 5.074,90 5.026,90 C4.954,90 4.855,90.015 4.729,90.045 C4.603,90.075 4.48,90.12 4.36,90.18 L4.36,90.18 L7.69,95.112 L7.69,98.946 C7.942,98.982 8.14,99 8.284,99 Z M25.498,99.09 C26.206,99.09 26.755,99.015 27.145,98.865 C27.535,98.715 27.823,98.511 28.009,98.253 C28.195,97.995 28.306,97.689 28.342,97.335 C28.378,96.981 28.396,96.6 28.396,96.192 L28.396,96.192 L28.396,94.608 C28.396,94.2 28.378,93.822 28.342,93.474 C28.306,93.126 28.195,92.82 28.009,92.556 C27.823,92.292 27.535,92.085 27.145,91.935 C26.755,91.785 26.206,91.71 25.498,91.71 C24.79,91.71 24.241,91.785 23.851,91.935 C23.461,92.085 23.173,92.292 22.987,92.556 C22.801,92.82 22.69,93.126 22.654,93.474 C22.618,93.822 22.6,94.2 22.6,94.608 L22.6,94.608 L22.6,96.192 C22.6,96.6 22.618,96.981 22.654,97.335 C22.69,97.689 22.801,97.995 22.987,98.253 C23.173,98.511 23.461,98.715 23.851,98.865 C24.241,99.015 24.79,99.09 25.498,99.09 Z M25.498,98.046 C25.066,98.046 24.733,97.986 24.499,97.866 C24.265,97.746 24.094,97.596 23.986,97.416 C23.878,97.236 23.815,97.035 23.797,96.813 C23.779,96.591 23.77,96.378 23.77,96.174 L23.77,96.174 L23.77,94.626 C23.77,94.422 23.779,94.209 23.797,93.987 C23.815,93.765 23.878,93.564 23.986,93.384 C24.094,93.204 24.265,93.054 24.499,92.934 C24.733,92.814 25.066,92.754 25.498,92.754 C25.93,92.754 26.263,92.814 26.497,92.934 C26.731,93.054 26.902,93.204 27.01,93.384 C27.118,93.564 27.181,93.765 27.199,93.987 C27.217,94.209 27.226,94.422 27.226,94.626 L27.226,94.626 L27.226,96.174 C27.226,96.378 27.217,96.591 27.199,96.813 C27.181,97.035 27.118,97.236 27.01,97.416 C26.902,97.596 26.731,97.746 26.497,97.866 C26.263,97.986 25.93,98.046 25.498,98.046 Z M42.964,99.09 C43.324,99.09 43.687,99.063 44.053,99.009 C44.419,98.955 44.728,98.766 44.98,98.442 L44.98,98.442 L45.16,98.442 L45.268,98.946 C45.52,98.982 45.694,99 45.79,99 C45.862,99 45.937,98.997 46.015,98.991 C46.093,98.985 46.198,98.97 46.33,98.946 L46.33,98.946 L46.33,91.854 C46.078,91.818 45.886,91.8 45.754,91.8 C45.61,91.8 45.412,91.818 45.16,91.854 L45.16,91.854 L45.16,96.534 C45.16,97.062 45.028,97.446 44.764,97.686 C44.5,97.926 44.02,98.046 43.324,98.046 C42.916,98.046 42.601,97.986 42.379,97.866 C42.157,97.746 41.995,97.59 41.893,97.398 C41.791,97.206 41.731,96.99 41.713,96.75 C41.695,96.51 41.686,96.27 41.686,96.03 L41.686,96.03 L41.686,91.854 C41.434,91.818 41.242,91.8 41.11,91.8 C40.966,91.8 40.768,91.818 40.516,91.854 L40.516,91.854 L40.516,96.354 C40.516,96.75 40.561,97.113 40.651,97.443 C40.741,97.773 40.885,98.061 41.083,98.307 C41.281,98.553 41.533,98.745 41.839,98.883 C42.145,99.021 42.52,99.09 42.964,99.09 Z M59.566,99 C59.71,99 59.908,98.982 60.16,98.946 L60.16,98.946 L60.16,94.266 C60.16,93.738 60.292,93.354 60.556,93.114 C60.82,92.874 61.3,92.754 61.996,92.754 L61.996,92.754 L62.698,92.754 C62.734,92.526 62.752,92.346 62.752,92.214 C62.752,92.13 62.746,92.046 62.734,91.962 C62.722,91.878 62.698,91.794 62.662,91.71 L62.662,91.71 L62.356,91.71 C61.996,91.71 61.633,91.737 61.267,91.791 C60.901,91.845 60.592,92.034 60.34,92.358 L60.34,92.358 L60.16,92.358 L60.052,91.854 C59.8,91.818 59.626,91.8 59.53,91.8 C59.458,91.8 59.383,91.803 59.305,91.809 C59.227,91.815 59.122,91.83 58.99,91.854 L58.99,91.854 L58.99,98.946 C59.242,98.982 59.434,99 59.566,99 Z M94.192,99 C94.312,99 94.435,98.991 94.561,98.973 C94.687,98.955 94.78,98.928 94.84,98.892 L94.84,98.892 L92.05,90.144 C91.846,90.072 91.687,90.03 91.573,90.018 C91.459,90.006 91.3,90 91.096,90 C90.892,90 90.733,90.006 90.619,90.018 C90.505,90.03 90.346,90.072 90.142,90.144 L90.142,90.144 L87.352,98.892 C87.412,98.928 87.505,98.955 87.631,98.973 C87.757,98.991 87.88,99 88,99 C88.096,99 88.195,98.997 88.297,98.991 C88.399,98.985 88.492,98.97 88.576,98.946 L88.576,98.946 L89.494,96.084 L92.698,96.084 L93.616,98.946 C93.7,98.97 93.793,98.985 93.895,98.991 C93.997,98.997 94.096,99 94.192,99 Z M92.374,95.04 L89.818,95.04 L91.096,91.008 L92.374,95.04 Z M107.194,99 C107.326,99 107.518,98.982 107.77,98.946 L107.77,98.946 L107.77,90.054 C107.518,90.018 107.32,90 107.176,90 C107.044,90 106.852,90.018 106.6,90.054 L106.6,90.054 L106.6,98.946 C106.852,98.982 107.05,99 107.194,99 Z M136.456,99 C136.66,99 136.81,98.994 136.906,98.982 C137.002,98.97 137.152,98.928 137.356,98.856 L137.356,98.856 L139.12,93.744 L140.902,98.856 C141.106,98.928 141.256,98.97 141.352,98.982 C141.448,98.994 141.598,99 141.802,99 C142.006,99 142.192,98.994 142.36,98.982 C142.528,98.97 142.714,98.928 142.918,98.856 L142.918,98.856 L144.448,90.108 C144.316,90.036 144.124,90 143.872,90 C143.776,90 143.677,90.003 143.575,90.009 C143.473,90.015 143.38,90.03 143.296,90.054 L143.296,90.054 L141.91,97.992 L139.696,91.638 C139.612,91.614 139.522,91.599 139.426,91.593 C139.33,91.587 139.234,91.584 139.138,91.584 C139.03,91.584 138.931,91.587 138.841,91.593 C138.751,91.599 138.658,91.614 138.562,91.638 L138.562,91.638 L136.348,97.992 L134.962,90.054 C134.878,90.03 134.785,90.015 134.683,90.009 C134.581,90.003 134.482,90 134.386,90 C134.122,90 133.93,90.036 133.81,90.108 L133.81,90.108 L135.34,98.856 C135.544,98.928 135.73,98.97 135.898,98.982 C136.066,98.994 136.252,99 136.456,99 Z M156.784,99 C156.928,99 157.126,98.982 157.378,98.946 L157.378,98.946 L157.378,94.266 C157.378,93.738 157.51,93.354 157.774,93.114 C158.038,92.874 158.518,92.754 159.214,92.754 L159.214,92.754 L159.916,92.754 C159.952,92.526 159.97,92.346 159.97,92.214 C159.97,92.13 159.964,92.046 159.952,91.962 C159.94,91.878 159.916,91.794 159.88,91.71 L159.88,91.71 L159.574,91.71 C159.214,91.71 158.851,91.737 158.485,91.791 C158.119,91.845 157.81,92.034 157.558,92.358 L157.558,92.358 L157.378,92.358 L157.27,91.854 C157.018,91.818 156.844,91.8 156.748,91.8 C156.676,91.8 156.601,91.803 156.523,91.809 C156.445,91.815 156.34,91.83 156.208,91.854 L156.208,91.854 L156.208,98.946 C156.46,98.982 156.652,99 156.784,99 Z M172.234,90.756 C172.366,90.756 172.558,90.738 172.81,90.702 L172.81,90.702 L172.81,89.298 C172.558,89.262 172.36,89.244 172.216,89.244 C172.084,89.244 171.892,89.262 171.64,89.298 L171.64,89.298 L171.64,90.702 C171.892,90.738 172.09,90.756 172.234,90.756 Z M172.234,99 C172.366,99 172.558,98.982 172.81,98.946 L172.81,98.946 L172.81,91.854 C172.558,91.818 172.36,91.8 172.216,91.8 C172.084,91.8 171.892,91.818 171.64,91.854 L171.64,91.854 L171.64,98.946 C171.892,98.982 172.09,99 172.234,99 Z M189.052,99 C189.088,98.784 189.106,98.616 189.106,98.496 C189.106,98.376 189.088,98.196 189.052,97.956 L189.052,97.956 L188.278,97.956 C188.05,97.956 187.87,97.932 187.738,97.884 C187.606,97.836 187.507,97.767 187.441,97.677 C187.375,97.587 187.333,97.473 187.315,97.335 C187.297,97.197 187.288,97.026 187.288,96.822 L187.288,96.822 L187.288,92.844 L188.998,92.844 C189.034,92.76 189.058,92.676 189.07,92.592 C189.082,92.508 189.088,92.424 189.088,92.34 C189.088,92.22 189.07,92.04 189.034,91.8 L189.034,91.8 L187.288,91.8 L187.288,89.712 C187.036,89.676 186.838,89.658 186.694,89.658 C186.562,89.658 186.37,89.676 186.118,89.712 L186.118,89.712 L186.118,91.8 L184.714,91.8 C184.678,92.04 184.66,92.22 184.66,92.34 C184.66,92.424 184.666,92.508 184.678,92.592 C184.69,92.676 184.714,92.76 184.75,92.844 L184.75,92.844 L186.118,92.844 L186.118,96.822 C186.118,97.254 186.154,97.608 186.226,97.884 C186.298,98.16 186.418,98.382 186.586,98.55 C186.754,98.718 186.976,98.835 187.252,98.901 C187.528,98.967 187.876,99 188.296,99 L188.296,99 L189.052,99 Z M201.676,90.756 C201.808,90.756 202,90.738 202.252,90.702 L202.252,90.702 L202.252,89.298 C202,89.262 201.802,89.244 201.658,89.244 C201.526,89.244 201.334,89.262 201.082,89.298 L201.082,89.298 L201.082,90.702 C201.334,90.738 201.532,90.756 201.676,90.756 Z M201.676,99 C201.808,99 202,98.982 202.252,98.946 L202.252,98.946 L202.252,91.854 C202,91.818 201.802,91.8 201.658,91.8 C201.526,91.8 201.334,91.818 201.082,91.854 L201.082,91.854 L201.082,98.946 C201.334,98.982 201.532,99 201.676,99 Z M220.132,99 C220.276,99 220.474,98.982 220.726,98.946 L220.726,98.946 L220.726,94.446 C220.726,94.05 220.681,93.687 220.591,93.357 C220.501,93.027 220.357,92.739 220.159,92.493 C219.961,92.247 219.709,92.055 219.403,91.917 C219.097,91.779 218.722,91.71 218.278,91.71 C217.918,91.71 217.555,91.737 217.189,91.791 C216.823,91.845 216.514,92.034 216.262,92.358 L216.262,92.358 L216.082,92.358 L215.974,91.854 C215.722,91.818 215.548,91.8 215.452,91.8 C215.38,91.8 215.305,91.803 215.227,91.809 C215.149,91.815 215.044,91.83 214.912,91.854 L214.912,91.854 L214.912,98.946 C215.164,98.982 215.356,99 215.488,99 C215.632,99 215.83,98.982 216.082,98.946 L216.082,98.946 L216.082,94.266 C216.082,93.738 216.214,93.354 216.478,93.114 C216.742,92.874 217.222,92.754 217.918,92.754 C218.326,92.754 218.641,92.814 218.863,92.934 C219.085,93.054 219.247,93.21 219.349,93.402 C219.451,93.594 219.511,93.81 219.529,94.05 C219.547,94.29 219.556,94.53 219.556,94.77 L219.556,94.77 L219.556,98.946 C219.808,98.982 220,99 220.132,99 Z M235.654,102.312 C236.122,102.312 236.545,102.267 236.923,102.177 C237.301,102.087 237.625,101.937 237.895,101.727 C238.165,101.517 238.372,101.241 238.516,100.899 C238.66,100.557 238.732,100.134 238.732,99.63 L238.732,99.63 L238.732,91.854 C238.48,91.818 238.282,91.8 238.138,91.8 C238.006,91.8 237.814,91.818 237.562,91.854 L237.562,91.854 L237.562,92.358 L237.4,92.358 C237.292,92.202 237.154,92.079 236.986,91.989 C236.818,91.899 236.647,91.833 236.473,91.791 C236.299,91.749 236.137,91.725 235.987,91.719 C235.837,91.713 235.732,91.71 235.672,91.71 C234.988,91.71 234.46,91.785 234.088,91.935 C233.716,92.085 233.446,92.292 233.278,92.556 C233.11,92.82 233.011,93.126 232.981,93.474 C232.951,93.822 232.936,94.2 232.936,94.608 L232.936,94.608 L232.936,96.192 C232.936,96.6 232.954,96.981 232.99,97.335 C233.026,97.689 233.137,97.995 233.323,98.253 C233.509,98.511 233.797,98.715 234.187,98.865 C234.577,99.015 235.126,99.09 235.834,99.09 C236.134,99.09 236.434,99.051 236.734,98.973 C237.034,98.895 237.31,98.718 237.562,98.442 L237.562,98.442 L237.562,99.738 C237.562,100.314 237.385,100.713 237.031,100.935 C236.677,101.157 236.224,101.268 235.672,101.268 C235.528,101.268 235.36,101.265 235.168,101.259 C234.976,101.253 234.781,101.241 234.583,101.223 C234.385,101.205 234.193,101.181 234.007,101.151 C233.821,101.121 233.656,101.082 233.512,101.034 C233.416,101.19 233.347,101.343 233.305,101.493 C233.263,101.643 233.242,101.82 233.242,102.024 C233.398,102.072 233.581,102.114 233.791,102.15 C234.001,102.186 234.217,102.216 234.439,102.24 C234.661,102.264 234.877,102.282 235.087,102.294 C235.297,102.306 235.486,102.312 235.654,102.312 Z M235.834,98.046 C235.402,98.046 235.069,97.986 234.835,97.866 C234.601,97.746 234.43,97.596 234.322,97.416 C234.214,97.236 234.151,97.035 234.133,96.813 C234.115,96.591 234.106,96.378 234.106,96.174 L234.106,96.174 L234.106,94.626 C234.106,94.422 234.115,94.209 234.133,93.987 C234.151,93.765 234.208,93.564 234.304,93.384 C234.4,93.204 234.55,93.054 234.754,92.934 C234.958,92.814 235.252,92.754 235.636,92.754 C236.008,92.754 236.32,92.799 236.572,92.889 C236.824,92.979 237.022,93.099 237.166,93.249 C237.31,93.399 237.412,93.567 237.472,93.753 C237.532,93.939 237.562,94.128 237.562,94.32 L237.562,94.32 L237.562,96.174 C237.562,96.378 237.553,96.591 237.535,96.813 C237.517,97.035 237.454,97.236 237.346,97.416 C237.238,97.596 237.067,97.746 236.833,97.866 C236.599,97.986 236.266,98.046 235.834,98.046 Z M271.162,99 C271.282,99 271.405,98.991 271.531,98.973 C271.657,98.955 271.75,98.928 271.81,98.892 L271.81,98.892 L269.02,90.144 C268.816,90.072 268.657,90.03 268.543,90.018 C268.429,90.006 268.27,90 268.066,90 C267.862,90 267.703,90.006 267.589,90.018 C267.475,90.03 267.316,90.072 267.112,90.144 L267.112,90.144 L264.322,98.892 C264.382,98.928 264.475,98.955 264.601,98.973 C264.727,98.991 264.85,99 264.97,99 C265.066,99 265.165,98.997 265.267,98.991 C265.369,98.985 265.462,98.97 265.546,98.946 L265.546,98.946 L266.464,96.084 L269.668,96.084 L270.586,98.946 C270.67,98.97 270.763,98.985 270.865,98.991 C270.967,98.997 271.066,99 271.162,99 Z M269.344,95.04 L266.788,95.04 L268.066,91.008 L269.344,95.04 Z M285.856,99.09 C286.828,99.09 287.515,98.928 287.917,98.604 C288.319,98.28 288.52,97.722 288.52,96.93 C288.52,96.522 288.415,96.192 288.205,95.94 C287.995,95.688 287.734,95.481 287.422,95.319 C287.11,95.157 286.771,95.028 286.405,94.932 C286.039,94.836 285.7,94.737 285.388,94.635 C285.076,94.533 284.815,94.41 284.605,94.266 C284.395,94.122 284.29,93.93 284.29,93.69 C284.29,93.366 284.404,93.129 284.632,92.979 C284.86,92.829 285.292,92.754 285.928,92.754 C286.312,92.754 286.702,92.775 287.098,92.817 C287.494,92.859 287.788,92.916 287.98,92.988 C288.064,92.82 288.124,92.667 288.16,92.529 C288.196,92.391 288.226,92.22 288.25,92.016 C288.106,91.968 287.935,91.923 287.737,91.881 C287.539,91.839 287.332,91.806 287.116,91.782 C286.9,91.758 286.687,91.74 286.477,91.728 C286.267,91.716 286.072,91.71 285.892,91.71 C285.04,91.71 284.365,91.854 283.867,92.142 C283.369,92.43 283.12,92.946 283.12,93.69 C283.12,94.086 283.225,94.41 283.435,94.662 C283.645,94.914 283.906,95.121 284.218,95.283 C284.53,95.445 284.869,95.577 285.235,95.679 C285.601,95.781 285.94,95.886 286.252,95.994 C286.564,96.102 286.825,96.228 287.035,96.372 C287.245,96.516 287.35,96.702 287.35,96.93 C287.35,97.122 287.332,97.287 287.296,97.425 C287.26,97.563 287.188,97.677 287.08,97.767 C286.972,97.857 286.819,97.926 286.621,97.974 C286.423,98.022 286.168,98.046 285.856,98.046 C285.712,98.046 285.538,98.037 285.334,98.019 C285.13,98.001 284.92,97.977 284.704,97.947 C284.488,97.917 284.278,97.878 284.074,97.83 C283.87,97.782 283.702,97.728 283.57,97.668 C283.45,97.848 283.372,98.001 283.336,98.127 C283.3,98.253 283.27,98.448 283.246,98.712 C283.402,98.772 283.588,98.826 283.804,98.874 C284.02,98.922 284.248,98.961 284.488,98.991 C284.728,99.021 284.968,99.045 285.208,99.063 C285.448,99.081 285.664,99.09 285.856,99.09 Z M303.106,99.09 C304.078,99.09 304.765,98.928 305.167,98.604 C305.569,98.28 305.77,97.722 305.77,96.93 C305.77,96.522 305.665,96.192 305.455,95.94 C305.245,95.688 304.984,95.481 304.672,95.319 C304.36,95.157 304.021,95.028 303.655,94.932 C303.289,94.836 302.95,94.737 302.638,94.635 C302.326,94.533 302.065,94.41 301.855,94.266 C301.645,94.122 301.54,93.93 301.54,93.69 C301.54,93.366 301.654,93.129 301.882,92.979 C302.11,92.829 302.542,92.754 303.178,92.754 C303.562,92.754 303.952,92.775 304.348,92.817 C304.744,92.859 305.038,92.916 305.23,92.988 C305.314,92.82 305.374,92.667 305.41,92.529 C305.446,92.391 305.476,92.22 305.5,92.016 C305.356,91.968 305.185,91.923 304.987,91.881 C304.789,91.839 304.582,91.806 304.366,91.782 C304.15,91.758 303.937,91.74 303.727,91.728 C303.517,91.716 303.322,91.71 303.142,91.71 C302.29,91.71 301.615,91.854 301.117,92.142 C300.619,92.43 300.37,92.946 300.37,93.69 C300.37,94.086 300.475,94.41 300.685,94.662 C300.895,94.914 301.156,95.121 301.468,95.283 C301.78,95.445 302.119,95.577 302.485,95.679 C302.851,95.781 303.19,95.886 303.502,95.994 C303.814,96.102 304.075,96.228 304.285,96.372 C304.495,96.516 304.6,96.702 304.6,96.93 C304.6,97.122 304.582,97.287 304.546,97.425 C304.51,97.563 304.438,97.677 304.33,97.767 C304.222,97.857 304.069,97.926 303.871,97.974 C303.673,98.022 303.418,98.046 303.106,98.046 C302.962,98.046 302.788,98.037 302.584,98.019 C302.38,98.001 302.17,97.977 301.954,97.947 C301.738,97.917 301.528,97.878 301.324,97.83 C301.12,97.782 300.952,97.728 300.82,97.668 C300.7,97.848 300.622,98.001 300.586,98.127 C300.55,98.253 300.52,98.448 300.496,98.712 C300.652,98.772 300.838,98.826 301.054,98.874 C301.27,98.922 301.498,98.961 301.738,98.991 C301.978,99.021 302.218,99.045 302.458,99.063 C302.698,99.081 302.914,99.09 303.106,99.09 Z M318.664,90.756 C318.796,90.756 318.988,90.738 319.24,90.702 L319.24,90.702 L319.24,89.298 C318.988,89.262 318.79,89.244 318.646,89.244 C318.514,89.244 318.322,89.262 318.07,89.298 L318.07,89.298 L318.07,90.702 C318.322,90.738 318.52,90.756 318.664,90.756 Z M318.664,99 C318.796,99 318.988,98.982 319.24,98.946 L319.24,98.946 L319.24,91.854 C318.988,91.818 318.79,91.8 318.646,91.8 C318.514,91.8 318.322,91.818 318.07,91.854 L318.07,91.854 L318.07,98.946 C318.322,98.982 318.52,99 318.664,99 Z M334.186,99.09 C335.158,99.09 335.845,98.928 336.247,98.604 C336.649,98.28 336.85,97.722 336.85,96.93 C336.85,96.522 336.745,96.192 336.535,95.94 C336.325,95.688 336.064,95.481 335.752,95.319 C335.44,95.157 335.101,95.028 334.735,94.932 C334.369,94.836 334.03,94.737 333.718,94.635 C333.406,94.533 333.145,94.41 332.935,94.266 C332.725,94.122 332.62,93.93 332.62,93.69 C332.62,93.366 332.734,93.129 332.962,92.979 C333.19,92.829 333.622,92.754 334.258,92.754 C334.642,92.754 335.032,92.775 335.428,92.817 C335.824,92.859 336.118,92.916 336.31,92.988 C336.394,92.82 336.454,92.667 336.49,92.529 C336.526,92.391 336.556,92.22 336.58,92.016 C336.436,91.968 336.265,91.923 336.067,91.881 C335.869,91.839 335.662,91.806 335.446,91.782 C335.23,91.758 335.017,91.74 334.807,91.728 C334.597,91.716 334.402,91.71 334.222,91.71 C333.37,91.71 332.695,91.854 332.197,92.142 C331.699,92.43 331.45,92.946 331.45,93.69 C331.45,94.086 331.555,94.41 331.765,94.662 C331.975,94.914 332.236,95.121 332.548,95.283 C332.86,95.445 333.199,95.577 333.565,95.679 C333.931,95.781 334.27,95.886 334.582,95.994 C334.894,96.102 335.155,96.228 335.365,96.372 C335.575,96.516 335.68,96.702 335.68,96.93 C335.68,97.122 335.662,97.287 335.626,97.425 C335.59,97.563 335.518,97.677 335.41,97.767 C335.302,97.857 335.149,97.926 334.951,97.974 C334.753,98.022 334.498,98.046 334.186,98.046 C334.042,98.046 333.868,98.037 333.664,98.019 C333.46,98.001 333.25,97.977 333.034,97.947 C332.818,97.917 332.608,97.878 332.404,97.83 C332.2,97.782 332.032,97.728 331.9,97.668 C331.78,97.848 331.702,98.001 331.666,98.127 C331.63,98.253 331.6,98.448 331.576,98.712 C331.732,98.772 331.918,98.826 332.134,98.874 C332.35,98.922 332.578,98.961 332.818,98.991 C333.058,99.021 333.298,99.045 333.538,99.063 C333.778,99.081 333.994,99.09 334.186,99.09 Z M352.732,99 C352.768,98.784 352.786,98.616 352.786,98.496 C352.786,98.376 352.768,98.196 352.732,97.956 L352.732,97.956 L351.958,97.956 C351.73,97.956 351.55,97.932 351.418,97.884 C351.286,97.836 351.187,97.767 351.121,97.677 C351.055,97.587 351.013,97.473 350.995,97.335 C350.977,97.197 350.968,97.026 350.968,96.822 L350.968,96.822 L350.968,92.844 L352.678,92.844 C352.714,92.76 352.738,92.676 352.75,92.592 C352.762,92.508 352.768,92.424 352.768,92.34 C352.768,92.22 352.75,92.04 352.714,91.8 L352.714,91.8 L350.968,91.8 L350.968,89.712 C350.716,89.676 350.518,89.658 350.374,89.658 C350.242,89.658 350.05,89.676 349.798,89.712 L349.798,89.712 L349.798,91.8 L348.394,91.8 C348.358,92.04 348.34,92.22 348.34,92.34 C348.34,92.424 348.346,92.508 348.358,92.592 C348.37,92.676 348.394,92.76 348.43,92.844 L348.43,92.844 L349.798,92.844 L349.798,96.822 C349.798,97.254 349.834,97.608 349.906,97.884 C349.978,98.16 350.098,98.382 350.266,98.55 C350.434,98.718 350.656,98.835 350.932,98.901 C351.208,98.967 351.556,99 351.976,99 L351.976,99 L352.732,99 Z M366.832,99.09 C367.264,99.09 367.657,99.009 368.011,98.847 C368.365,98.685 368.662,98.436 368.902,98.1 L368.902,98.1 L368.902,98.946 C369.154,98.982 369.346,99 369.478,99 C369.622,99 369.82,98.982 370.072,98.946 L370.072,98.946 L370.072,94.338 C370.072,93.834 370,93.414 369.856,93.078 C369.712,92.742 369.505,92.472 369.235,92.268 C368.965,92.064 368.644,91.92 368.272,91.836 C367.9,91.752 367.48,91.71 367.012,91.71 C366.676,91.71 366.316,91.74 365.932,91.8 C365.548,91.86 365.2,91.938 364.888,92.034 C364.888,92.238 364.909,92.415 364.951,92.565 C364.993,92.715 365.062,92.868 365.158,93.024 C365.71,92.844 366.28,92.754 366.868,92.754 C367.144,92.754 367.405,92.781 367.651,92.835 C367.897,92.889 368.113,92.979 368.299,93.105 C368.485,93.231 368.632,93.393 368.74,93.591 C368.848,93.789 368.902,94.032 368.902,94.32 L368.902,94.32 L368.902,94.914 L368.74,94.914 C368.5,94.806 368.251,94.722 367.993,94.662 C367.735,94.602 367.45,94.572 367.138,94.572 C366.79,94.572 366.445,94.611 366.103,94.689 C365.761,94.767 365.458,94.893 365.194,95.067 C364.93,95.241 364.717,95.472 364.555,95.76 C364.393,96.048 364.312,96.396 364.312,96.804 C364.312,97.656 364.51,98.25 364.906,98.586 C365.302,98.922 365.944,99.09 366.832,99.09 Z M366.868,98.082 C366.424,98.07 366.082,97.953 365.842,97.731 C365.602,97.509 365.482,97.188 365.482,96.768 C365.482,96.504 365.545,96.294 365.671,96.138 C365.797,95.982 365.968,95.862 366.184,95.778 C366.4,95.694 366.652,95.64 366.94,95.616 C367.228,95.592 367.528,95.58 367.84,95.58 L367.84,95.58 L368.416,95.58 C368.524,95.58 368.623,95.583 368.713,95.589 C368.803,95.595 368.866,95.598 368.902,95.598 L368.902,95.598 L368.902,96.984 C368.662,97.272 368.377,97.527 368.047,97.749 C367.717,97.971 367.324,98.082 366.868,98.082 Z M387.682,99 C387.826,99 388.024,98.982 388.276,98.946 L388.276,98.946 L388.276,94.446 C388.276,94.05 388.231,93.687 388.141,93.357 C388.051,93.027 387.907,92.739 387.709,92.493 C387.511,92.247 387.259,92.055 386.953,91.917 C386.647,91.779 386.272,91.71 385.828,91.71 C385.468,91.71 385.105,91.737 384.739,91.791 C384.373,91.845 384.064,92.034 383.812,92.358 L383.812,92.358 L383.632,92.358 L383.524,91.854 C383.272,91.818 383.098,91.8 383.002,91.8 C382.93,91.8 382.855,91.803 382.777,91.809 C382.699,91.815 382.594,91.83 382.462,91.854 L382.462,91.854 L382.462,98.946 C382.714,98.982 382.906,99 383.038,99 C383.182,99 383.38,98.982 383.632,98.946 L383.632,98.946 L383.632,94.266 C383.632,93.738 383.764,93.354 384.028,93.114 C384.292,92.874 384.772,92.754 385.468,92.754 C385.876,92.754 386.191,92.814 386.413,92.934 C386.635,93.054 386.797,93.21 386.899,93.402 C387.001,93.594 387.061,93.81 387.079,94.05 C387.097,94.29 387.106,94.53 387.106,94.77 L387.106,94.77 L387.106,98.946 C387.358,98.982 387.55,99 387.682,99 Z M404.338,99 C404.374,98.784 404.392,98.616 404.392,98.496 C404.392,98.376 404.374,98.196 404.338,97.956 L404.338,97.956 L403.564,97.956 C403.336,97.956 403.156,97.932 403.024,97.884 C402.892,97.836 402.793,97.767 402.727,97.677 C402.661,97.587 402.619,97.473 402.601,97.335 C402.583,97.197 402.574,97.026 402.574,96.822 L402.574,96.822 L402.574,92.844 L404.284,92.844 C404.32,92.76 404.344,92.676 404.356,92.592 C404.368,92.508 404.374,92.424 404.374,92.34 C404.374,92.22 404.356,92.04 404.32,91.8 L404.32,91.8 L402.574,91.8 L402.574,89.712 C402.322,89.676 402.124,89.658 401.98,89.658 C401.848,89.658 401.656,89.676 401.404,89.712 L401.404,89.712 L401.404,91.8 L400,91.8 C399.964,92.04 399.946,92.22 399.946,92.34 C399.946,92.424 399.952,92.508 399.964,92.592 C399.976,92.676 400,92.76 400.036,92.844 L400.036,92.844 L401.404,92.844 L401.404,96.822 C401.404,97.254 401.44,97.608 401.512,97.884 C401.584,98.16 401.704,98.382 401.872,98.55 C402.04,98.718 402.262,98.835 402.538,98.901 C402.814,98.967 403.162,99 403.582,99 L403.582,99 L404.338,99 Z" id="YourAIWritingAssistant" fill="#FFFFFF" fill-rule="nonzero" opacity="0.698196766"></path>
            </g>
        </g>
    </g>
</svg>